<svg width="107" height="31" viewBox="0 0 107 31" fill="none" xmlns="http://www.w3.org/2000/svg">
<path d="M21.4545 12.3636C21.4545 14.8182 21.0114 16.9394 20.125 18.7273C19.2386 20.5152 18.0227 21.8939 16.4773 22.8636C14.9318 23.8333 13.1667 24.3182 11.1818 24.3182C9.19697 24.3182 7.43182 23.8333 5.88636 22.8636C4.34091 21.8939 3.125 20.5152 2.23864 18.7273C1.35227 16.9394 0.909091 14.8182 0.909091 12.3636C0.909091 9.90909 1.35227 7.78788 2.23864 6C3.125 4.21212 4.34091 2.83333 5.88636 1.86364C7.43182 0.89394 9.19697 0.409091 11.1818 0.409091C13.1667 0.409091 14.9318 0.89394 16.4773 1.86364C18.0227 2.83333 19.2386 4.21212 20.125 6C21.0114 7.78788 21.4545 9.90909 21.4545 12.3636ZM18.7273 12.3636C18.7273 10.3485 18.3902 8.64773 17.7159 7.26137C17.0492 5.875 16.1439 4.82576 15 4.11364C13.8636 3.40152 12.5909 3.04546 11.1818 3.04546C9.77273 3.04546 8.49621 3.40152 7.35227 4.11364C6.21591 4.82576 5.31061 5.875 4.63636 7.26137C3.9697 8.64773 3.63636 10.3485 3.63636 12.3636C3.63636 14.3788 3.9697 16.0795 4.63636 17.4659C5.31061 18.8523 6.21591 19.9015 7.35227 20.6136C8.49621 21.3258 9.77273 21.6818 11.1818 21.6818C12.5909 21.6818 13.8636 21.3258 15 20.6136C16.1439 19.9015 17.0492 18.8523 17.7159 17.4659C18.3902 16.0795 18.7273 14.3788 18.7273 12.3636ZM25.8295 24L25.8295 6.54546L28.4205 6.54546L28.4205 9.18182H28.6023C28.9205 8.31818 29.4962 7.61743 30.3295 7.07955C31.1629 6.54167 32.1023 6.27273 33.1477 6.27273C33.3447 6.27273 33.5909 6.27652 33.8864 6.28409C34.1818 6.29167 34.4053 6.30303 34.5568 6.31818L34.5568 9.04546C34.4659 9.02273 34.2576 8.98864 33.9318 8.94318C33.6136 8.89015 33.2765 8.86364 32.9205 8.86364C32.072 8.86364 31.3144 9.04167 30.6477 9.39773C29.9886 9.74621 29.4659 10.2311 29.0795 10.8523C28.7008 11.4659 28.5114 12.1667 28.5114 12.9545L28.5114 24L25.8295 24ZM37.7358 24L37.7358 6.54546L40.4176 6.54546L40.4176 24L37.7358 24ZM39.0994 3.63637C38.5767 3.63637 38.126 3.45833 37.7472 3.10227C37.376 2.74621 37.1903 2.31818 37.1903 1.81818C37.1903 1.31818 37.376 0.890152 37.7472 0.534091C38.126 0.178031 38.5767 8.34465e-07 39.0994 8.34465e-07C39.6222 8.34465e-07 40.0691 0.178031 40.4403 0.534091C40.8191 0.890152 41.0085 1.31818 41.0085 1.81818C41.0085 2.31818 40.8191 2.74621 40.4403 3.10227C40.0691 3.45833 39.6222 3.63637 39.0994 3.63637ZM52.375 30.9091C51.0796 30.9091 49.9659 30.7424 49.0341 30.4091C48.1023 30.0833 47.3258 29.6515 46.7046 29.1136C46.0909 28.5833 45.6023 28.0152 45.2386 27.4091L47.375 25.9091C47.6174 26.2273 47.9242 26.5909 48.2955 27C48.6667 27.4167 49.1742 27.7765 49.8182 28.0795C50.4697 28.3902 51.322 28.5455 52.375 28.5455C53.7841 28.5455 54.947 28.2045 55.8636 27.5227C56.7803 26.8409 57.2386 25.7727 57.2386 24.3182L57.2386 20.7727H57.0114C56.8144 21.0909 56.5341 21.4849 56.1705 21.9545C55.8144 22.4167 55.2992 22.8295 54.625 23.1932C53.9583 23.5492 53.0568 23.7273 51.9205 23.7273C50.5114 23.7273 49.2462 23.3939 48.125 22.7273C47.0114 22.0606 46.1288 21.0909 45.4773 19.8182C44.8333 18.5455 44.5114 17 44.5114 15.1818C44.5114 13.3939 44.8258 11.8371 45.4546 10.5114C46.0833 9.17803 46.9583 8.14773 48.0796 7.42046C49.2008 6.68561 50.4962 6.31818 51.9659 6.31818C53.1023 6.31818 54.0038 6.50758 54.6705 6.88637C55.3447 7.25758 55.8599 7.68182 56.2159 8.15909C56.5796 8.62879 56.8599 9.01515 57.0568 9.31818H57.3296V6.54546L59.9205 6.54546L59.9205 24.5C59.9205 26 59.5796 27.2197 58.8977 28.1591C58.2235 29.1061 57.3144 29.7992 56.1705 30.2386C55.0341 30.6856 53.7689 30.9091 52.375 30.9091ZM52.2841 21.3182C53.3599 21.3182 54.2689 21.072 55.0114 20.5795C55.7538 20.0871 56.3182 19.3788 56.7046 18.4545C57.0909 17.5303 57.2841 16.4242 57.2841 15.1364C57.2841 13.8788 57.0947 12.7689 56.7159 11.8068C56.3371 10.8447 55.7765 10.0909 55.0341 9.54546C54.2917 9 53.375 8.72727 52.2841 8.72727C51.1477 8.72727 50.2008 9.01515 49.4432 9.59091C48.6932 10.1667 48.1288 10.9394 47.75 11.9091C47.3788 12.8788 47.1932 13.9545 47.1932 15.1364C47.1932 16.3485 47.3826 17.4205 47.7614 18.3523C48.1477 19.2765 48.7159 20.0038 49.4659 20.5341C50.2235 21.0568 51.1629 21.3182 52.2841 21.3182ZM72.1477 24.3636C70.4659 24.3636 69.0152 23.9924 67.7955 23.25C66.5833 22.5 65.6477 21.4545 64.9886 20.1136C64.3371 18.7652 64.0114 17.197 64.0114 15.4091C64.0114 13.6212 64.3371 12.0455 64.9886 10.6818C65.6477 9.31061 66.5644 8.24243 67.7386 7.47727C68.9205 6.70455 70.2993 6.31818 71.875 6.31818C72.7841 6.31818 73.6818 6.4697 74.5682 6.77273C75.4546 7.07576 76.2614 7.56818 76.9886 8.25C77.7159 8.92424 78.2955 9.81818 78.7273 10.9318C79.1591 12.0455 79.375 13.4167 79.375 15.0455V16.1818L65.9205 16.1818V13.8636L76.6477 13.8636C76.6477 12.8788 76.4508 12 76.0568 11.2273C75.6705 10.4545 75.1174 9.8447 74.3977 9.39773C73.6856 8.95076 72.8447 8.72727 71.875 8.72727C70.8068 8.72727 69.8826 8.99243 69.1023 9.52273C68.3296 10.0455 67.7349 10.7273 67.3182 11.5682C66.9015 12.4091 66.6932 13.3106 66.6932 14.2727V15.8182C66.6932 17.1364 66.9205 18.2538 67.375 19.1705C67.8371 20.0795 68.4773 20.7727 69.2955 21.25C70.1136 21.7197 71.0644 21.9545 72.1477 21.9545C72.8523 21.9545 73.4886 21.8561 74.0568 21.6591C74.6326 21.4545 75.1288 21.1515 75.5455 20.75C75.9621 20.3409 76.2841 19.8333 76.5114 19.2273L79.1023 19.9545C78.8296 20.8333 78.3712 21.6061 77.7273 22.2727C77.0833 22.9318 76.2879 23.447 75.3409 23.8182C74.3939 24.1818 73.3296 24.3636 72.1477 24.3636ZM83.4546 24L83.4546 6.54546L86.0455 6.54546V9.27273H86.2727C86.6364 8.34091 87.2235 7.61743 88.0341 7.10227C88.8447 6.57955 89.8182 6.31818 90.9546 6.31818C92.1061 6.31818 93.0644 6.57955 93.8296 7.10227C94.6023 7.61743 95.2046 8.34091 95.6364 9.27273H95.8182C96.2652 8.37121 96.9356 7.6553 97.8296 7.125C98.7235 6.58712 99.7955 6.31818 101.045 6.31818C102.606 6.31818 103.883 6.80682 104.875 7.78409C105.867 8.75379 106.364 10.2652 106.364 12.3182L106.364 24L103.682 24L103.682 12.3182C103.682 11.0303 103.33 10.1099 102.625 9.55682C101.92 9.00379 101.091 8.72727 100.136 8.72727C98.9091 8.72727 97.9583 9.09849 97.2841 9.84091C96.6099 10.5758 96.2727 11.5076 96.2727 12.6364L96.2727 24L93.5455 24L93.5455 12.0455C93.5455 11.053 93.2235 10.2538 92.5796 9.64773C91.9356 9.03409 91.1061 8.72727 90.0909 8.72727C89.394 8.72727 88.7424 8.91288 88.1364 9.28409C87.5379 9.6553 87.053 10.1705 86.6818 10.8295C86.3182 11.4811 86.1364 12.2349 86.1364 13.0909L86.1364 24L83.4546 24Z" fill="#9D9D9D"/>
</svg>
