<svg width="1" height="9" viewBox="0 0 1 9" fill="none" xmlns="http://www.w3.org/2000/svg">
<path d="M-35 8.25L-35 0.25L-32.2969 0.25C-31.6693 0.25 -31.1562 0.363281 -30.7578 0.589843C-30.3568 0.813802 -30.0599 1.11719 -29.8672 1.5C-29.6745 1.88281 -29.5781 2.3099 -29.5781 2.78125C-29.5781 3.2526 -29.6745 3.68099 -29.8672 4.06641C-30.0573 4.45182 -30.3516 4.75912 -30.75 4.98828C-31.1484 5.21484 -31.6589 5.32813 -32.2812 5.32813L-34.2187 5.32813V4.46875L-32.3125 4.46875C-31.8828 4.46875 -31.5378 4.39453 -31.2773 4.24609C-31.0169 4.09766 -30.8281 3.89714 -30.7109 3.64453C-30.5911 3.38932 -30.5312 3.10156 -30.5312 2.78125C-30.5312 2.46094 -30.5911 2.17448 -30.7109 1.92187C-30.8281 1.66927 -31.0182 1.47135 -31.2812 1.32813C-31.5443 1.18229 -31.8932 1.10937 -32.3281 1.10937L-34.0312 1.10937L-34.0312 8.25L-35 8.25Z" fill="#BA6E6E"/>
<path d="M-26.377 8.39063C-26.7572 8.39063 -27.1022 8.31901 -27.4121 8.17578C-27.722 8.02995 -27.9681 7.82031 -28.1504 7.54688C-28.3327 7.27083 -28.4238 6.9375 -28.4238 6.54688C-28.4238 6.20313 -28.3561 5.92448 -28.2207 5.71094C-28.0853 5.49479 -27.9043 5.32552 -27.6777 5.20313C-27.4512 5.08073 -27.2012 4.98958 -26.9277 4.92969C-26.6517 4.86719 -26.3743 4.81771 -26.0957 4.78125C-25.7311 4.73438 -25.4355 4.69922 -25.209 4.67578C-24.9798 4.64974 -24.8131 4.60677 -24.709 4.54688C-24.6022 4.48698 -24.5488 4.38281 -24.5488 4.23438V4.20313C-24.5488 3.81771 -24.6543 3.51823 -24.8652 3.30469C-25.0736 3.09115 -25.39 2.98438 -25.8145 2.98438C-26.2546 2.98438 -26.5996 3.08073 -26.8496 3.27344C-27.0996 3.46615 -27.2754 3.67188 -27.377 3.89062L-28.252 3.57812C-28.0957 3.21354 -27.8874 2.92969 -27.627 2.72656C-27.3639 2.52083 -27.0775 2.3776 -26.7676 2.29688C-26.4551 2.21354 -26.1478 2.17188 -25.8457 2.17188C-25.653 2.17188 -25.4316 2.19531 -25.1816 2.24219C-24.929 2.28646 -24.6855 2.37891 -24.4512 2.51953C-24.2142 2.66016 -24.0176 2.8724 -23.8613 3.15625C-23.7051 3.4401 -23.627 3.82031 -23.627 4.29688L-23.627 8.25L-24.5488 8.25V7.4375H-24.5957C-24.6582 7.56771 -24.7624 7.70703 -24.9082 7.85547C-25.054 8.00391 -25.248 8.13021 -25.4902 8.23438C-25.7324 8.33854 -26.028 8.39063 -26.377 8.39063ZM-26.2363 7.5625C-25.8717 7.5625 -25.5645 7.49089 -25.3145 7.34766C-25.0618 7.20443 -24.8717 7.01953 -24.7441 6.79297C-24.6139 6.56641 -24.5488 6.32813 -24.5488 6.07813L-24.5488 5.23438C-24.5879 5.28125 -24.6738 5.32422 -24.8066 5.36328C-24.9368 5.39974 -25.0879 5.43229 -25.2598 5.46094C-25.429 5.48698 -25.5944 5.51042 -25.7559 5.53125C-25.9147 5.54948 -26.0436 5.5651 -26.1426 5.57813C-26.3822 5.60938 -26.6061 5.66016 -26.8145 5.73047C-27.0202 5.79818 -27.1868 5.90104 -27.3145 6.03906C-27.4395 6.17448 -27.502 6.35938 -27.502 6.59375C-27.502 6.91406 -27.3835 7.15625 -27.1465 7.32031C-26.9069 7.48177 -26.6035 7.5625 -26.2363 7.5625Z" fill="#BA6E6E"/>
<path d="M-21.9443 8.25L-21.9443 2.25L-21.0537 2.25L-21.0537 3.15625H-20.9912C-20.8818 2.85938 -20.6839 2.61849 -20.3975 2.43359C-20.111 2.2487 -19.7881 2.15625 -19.4287 2.15625C-19.361 2.15625 -19.2764 2.15755 -19.1748 2.16016C-19.0732 2.16276 -18.9964 2.16667 -18.9443 2.17188L-18.9443 3.10938C-18.9756 3.10156 -19.0472 3.08984 -19.1592 3.07422C-19.2686 3.05599 -19.3844 3.04688 -19.5068 3.04688C-19.7985 3.04688 -20.0589 3.10807 -20.2881 3.23047C-20.5146 3.35026 -20.6943 3.51693 -20.8271 3.73047C-20.9574 3.94141 -21.0225 4.18229 -21.0225 4.45313L-21.0225 8.25L-21.9443 8.25Z" fill="#BA6E6E"/>
<path d="M-14.8662 2.25L-14.8662 3.03125L-17.9756 3.03125L-17.9756 2.25L-14.8662 2.25ZM-17.0693 0.8125L-16.1475 0.8125L-16.1475 6.53125C-16.1475 6.79167 -16.1097 6.98698 -16.0342 7.11719C-15.9561 7.24479 -15.8571 7.33073 -15.7373 7.375C-15.6149 7.41667 -15.486 7.4375 -15.3506 7.4375C-15.249 7.4375 -15.1657 7.43229 -15.1006 7.42188C-15.0355 7.40886 -14.9834 7.39844 -14.9443 7.39063L-14.7568 8.21875C-14.8193 8.24219 -14.9066 8.26563 -15.0186 8.28906C-15.1305 8.31511 -15.2725 8.32813 -15.4443 8.32813C-15.7048 8.32813 -15.96 8.27214 -16.21 8.16016C-16.4574 8.04818 -16.6631 7.87761 -16.8271 7.64844C-16.9886 7.41927 -17.0693 7.13021 -17.0693 6.78125L-17.0693 0.8125Z" fill="#BA6E6E"/>
<path d="M-13.4795 8.25L-13.4795 2.25L-12.5576 2.25L-12.5576 8.25L-13.4795 8.25ZM-13.0107 1.25C-13.1904 1.25 -13.3454 1.1888 -13.4756 1.06641C-13.6032 0.94401 -13.667 0.796875 -13.667 0.625C-13.667 0.453125 -13.6032 0.30599 -13.4756 0.183594C-13.3454 0.0611979 -13.1904 0 -13.0107 0C-12.8311 0 -12.6774 0.0611979 -12.5498 0.183594C-12.4196 0.30599 -12.3545 0.453125 -12.3545 0.625C-12.3545 0.796875 -12.4196 0.94401 -12.5498 1.06641C-12.6774 1.1888 -12.8311 1.25 -13.0107 1.25Z" fill="#BA6E6E"/>
<path d="M-8.60351 8.375C-9.10351 8.375 -9.54492 8.2487 -9.92773 7.99609C-10.3105 7.74089 -10.61 7.38151 -10.8262 6.91797C-11.0423 6.45182 -11.1504 5.90104 -11.1504 5.26563C-11.1504 4.63542 -11.0423 4.08854 -10.8262 3.625C-10.61 3.16146 -10.3092 2.80339 -9.92383 2.55078C-9.53841 2.29818 -9.0931 2.17188 -8.58789 2.17188C-8.19726 2.17188 -7.88867 2.23698 -7.66211 2.36719C-7.43294 2.49479 -7.25846 2.64063 -7.13867 2.80469C-7.01627 2.96615 -6.92122 3.09896 -6.85351 3.20312H-6.77539L-6.77539 0.25L-5.85351 0.25L-5.85351 8.25L-6.74414 8.25V7.32813H-6.85351C-6.92122 7.4375 -7.01757 7.57552 -7.14257 7.74219C-7.26757 7.90625 -7.44596 8.05339 -7.67773 8.18359C-7.9095 8.3112 -8.2181 8.375 -8.60351 8.375ZM-8.47851 7.54688C-8.10872 7.54688 -7.79622 7.45052 -7.54101 7.25781C-7.2858 7.0625 -7.09179 6.79297 -6.95898 6.44922C-6.82617 6.10287 -6.75976 5.70313 -6.75976 5.25C-6.75976 4.80208 -6.82487 4.41016 -6.95507 4.07422C-7.08528 3.73568 -7.27799 3.47266 -7.5332 3.28516C-7.78841 3.09505 -8.10351 3 -8.47851 3C-8.86914 3 -9.19466 3.10026 -9.45508 3.30078C-9.71289 3.4987 -9.9069 3.76823 -10.0371 4.10938C-10.1647 4.44792 -10.2285 4.82813 -10.2285 5.25C-10.2285 5.67708 -10.1634 6.0651 -10.0332 6.41406C-9.90039 6.76042 -9.70508 7.03646 -9.44726 7.24219C-9.18685 7.44531 -8.86393 7.54688 -8.47851 7.54688Z" fill="#BA6E6E"/>
<path d="M-2.27148 8.39063C-2.65169 8.39063 -2.99674 8.31901 -3.30664 8.17578C-3.61653 8.02995 -3.86263 7.82031 -4.04492 7.54688C-4.22721 7.27083 -4.31836 6.9375 -4.31836 6.54688C-4.31836 6.20313 -4.25065 5.92448 -4.11523 5.71094C-3.97981 5.49479 -3.79882 5.32552 -3.57226 5.20313C-3.3457 5.08073 -3.0957 4.98958 -2.82226 4.92969C-2.54622 4.86719 -2.26888 4.81771 -1.99023 4.78125C-1.62565 4.73438 -1.33007 4.69922 -1.10351 4.67578C-0.874345 4.64974 -0.707678 4.60677 -0.603512 4.54688C-0.496741 4.48698 -0.443355 4.38281 -0.443355 4.23438V4.20313C-0.443355 3.81771 -0.548824 3.51823 -0.759762 3.30469C-0.968095 3.09115 -1.2845 2.98438 -1.70898 2.98438C-2.14908 2.98438 -2.49414 3.08073 -2.74414 3.27344C-2.99414 3.46615 -3.16992 3.67188 -3.27148 3.89062L-4.14648 3.57812C-3.99023 3.21354 -3.7819 2.92969 -3.52148 2.72656C-3.25846 2.52083 -2.972 2.3776 -2.66211 2.29688C-2.34961 2.21354 -2.04231 2.17188 -1.74023 2.17188C-1.54752 2.17188 -1.32617 2.19531 -1.07617 2.24219C-0.823564 2.28646 -0.580074 2.37891 -0.345699 2.51953C-0.10872 2.66016 0.0878949 2.8724 0.244145 3.15625C0.400395 3.4401 0.47852 3.82031 0.47852 4.29688L0.47852 8.25L-0.443355 8.25V7.4375L-0.49023 7.4375C-0.55273 7.56771 -0.656897 7.70703 -0.80273 7.85547C-0.948564 8.00391 -1.14257 8.13021 -1.38476 8.23438C-1.62695 8.33854 -1.92252 8.39063 -2.27148 8.39063ZM-2.13086 7.5625C-1.76627 7.5625 -1.45898 7.49089 -1.20898 7.34766C-0.956376 7.20443 -0.766272 7.01953 -0.638668 6.79297C-0.508459 6.56641 -0.443355 6.32813 -0.443355 6.07813L-0.443355 5.23438C-0.482418 5.28125 -0.568355 5.32422 -0.701168 5.36328C-0.831376 5.39974 -0.982418 5.43229 -1.15429 5.46094C-1.32356 5.48698 -1.48893 5.51042 -1.65039 5.53125C-1.80924 5.54948 -1.93815 5.5651 -2.03711 5.57813C-2.27669 5.60938 -2.50065 5.66016 -2.70898 5.73047C-2.91471 5.79818 -3.08138 5.90104 -3.20898 6.03906C-3.33398 6.17448 -3.39648 6.35938 -3.39648 6.59375C-3.39648 6.91406 -3.27799 7.15625 -3.04101 7.32031C-2.80143 7.48177 -2.49804 7.5625 -2.13086 7.5625Z" fill="#BA6E6E"/>
</svg>
